<svg width="24" height="24" viewBox="0 0 24 24" fill="none" xmlns="http://www.w3.org/2000/svg">
<path d="M0.375 1.5C0.375 0.87868 0.87868 0.375 1.5 0.375H22.5C23.1213 0.375 23.625 0.87868 23.625 1.5V22.5C23.625 23.1213 23.1213 23.625 22.5 23.625H1.5C0.87868 23.625 0.375 23.1213 0.375 22.5V1.5Z" fill="#0052B4"/>
<path d="M0.375 1.5C0.375 0.87868 0.87868 0.375 1.5 0.375H22.5C23.1213 0.375 23.625 0.87868 23.625 1.5V22.5C23.625 23.1213 23.1213 23.625 22.5 23.625H1.5C0.87868 23.625 0.375 23.1213 0.375 22.5V1.5Z" stroke="#E4E4E7" stroke-width="0.75"/>
<mask id="mask0_2253_43159" style="mask-type:luminance" maskUnits="userSpaceOnUse" x="3" y="3" width="18" height="18">
<path d="M12 21C16.9706 21 21 16.9706 21 12C21 7.02944 16.9706 3 12 3C7.02944 3 3 7.02944 3 12C3 16.9706 7.02944 21 12 21Z" fill="white"/>
</mask>
<g mask="url(#mask0_2253_43159)">
<path d="M3 3H21V21H3V3Z" fill="#0052B4"/>
<path d="M12 6.52271L12.2918 7.41919H13.2305L12.4676 7.97114L12.7594 8.87114L11.9965 8.31567L11.2336 8.87114L11.5254 7.97114L10.7625 7.41919H11.7047L12 6.52271ZM8.12578 8.12583L8.96953 8.55474L9.63399 7.88677L9.48633 8.81841L10.3266 9.24731L9.39492 9.39497L9.24727 10.3266L8.81836 9.48286L7.88672 9.63403L8.55469 8.96606L8.12578 8.12583ZM6.52266 12L7.41914 11.7083V10.7696L7.9711 11.5325L8.8711 11.2407L8.31563 12.0036L8.8711 12.7665L7.9711 12.4747L7.41914 13.2375V12.2954L6.52266 12ZM8.12578 15.8743L8.55469 15.0305L7.88672 14.3661L8.81836 14.5137L9.24727 13.6735L9.39492 14.6051L10.3266 14.7528L9.48282 15.1817L9.63399 16.1133L8.96602 15.4454L8.12578 15.8743ZM12 17.4774L11.7082 16.5809H10.7695L11.5324 16.029L11.2406 15.129L12.0035 15.6844L12.7664 15.129L12.4746 16.029L13.2375 16.5809H12.2953L12 17.4774ZM15.8742 15.8743L15.0305 15.4454L14.366 16.1133L14.5137 15.1817L13.6734 14.7528L14.6051 14.6051L14.7527 13.6735L15.1816 14.5172L16.1133 14.3661L15.4453 15.034L15.8742 15.8743ZM17.4773 12L16.5809 12.2918V13.2305L16.0289 12.4676L15.1289 12.7594L15.6844 11.9965L15.1289 11.2336L16.0289 11.5254L16.5809 10.7625V11.7047L17.4773 12ZM15.8742 8.12583L15.4453 8.96958L16.1133 9.63403L15.1816 9.48638L14.7527 10.3266L14.6051 9.39497L13.6734 9.24731L14.5172 8.81841L14.366 7.88677L15.034 8.55474L15.8742 8.12583Z" fill="#FFDA44"/>
</g>
</svg>
