<svg width="24" height="24" viewBox="0 0 24 24" fill="none" xmlns="http://www.w3.org/2000/svg">
<path d="M0.5 2C0.5 1.17157 1.17157 0.5 2 0.5H22C22.8284 0.5 23.5 1.17157 23.5 2V22C23.5 22.8284 22.8284 23.5 22 23.5H2C1.17157 23.5 0.5 22.8284 0.5 22V2Z" fill="#26A17B"/>
<path d="M0.5 2C0.5 1.17157 1.17157 0.5 2 0.5H22C22.8284 0.5 23.5 1.17157 23.5 2V22C23.5 22.8284 22.8284 23.5 22 23.5H2C1.17157 23.5 0.5 22.8284 0.5 22V2Z" stroke="#E4E4E7"/>
<path d="M12 21C16.9706 21 21 16.9706 21 12C21 7.02944 16.9706 3 12 3C7.02944 3 3 7.02944 3 12C3 16.9706 7.02944 21 12 21Z" fill="#26A17B"/>
<path fill-rule="evenodd" clip-rule="evenodd" d="M13.0812 12.7779V12.7768C13.0193 12.7813 12.7003 12.8004 11.9888 12.8004C11.4207 12.8004 11.0207 12.7836 10.8801 12.7768V12.7785C8.69309 12.6823 7.06071 12.3015 7.06071 11.8459C7.06071 11.3903 8.69309 11.01 10.8801 10.9121V12.3994C11.023 12.4095 11.4325 12.4337 11.9983 12.4337C12.6773 12.4337 13.0176 12.4056 13.0812 12.3999V10.9133C15.2637 11.0106 16.8921 11.3914 16.8921 11.8459C16.8921 12.3015 15.2637 12.6812 13.0812 12.7779ZM13.0812 10.7586V9.42769H16.1265V7.39819H7.83472V9.42769H10.8801V10.758C8.40509 10.8716 6.54378 11.3621 6.54378 11.9494C6.54378 12.5366 8.40509 13.0266 10.8801 13.1408V17.4056H13.0812V13.1396C15.5522 13.026 17.409 12.5361 17.409 11.9494C17.409 11.3627 15.5522 10.8728 13.0812 10.7586Z" fill="white"/>
</svg>
