<svg width="24" height="24" viewBox="0 0 24 24" fill="none" xmlns="http://www.w3.org/2000/svg">
<path fill-rule="evenodd" clip-rule="evenodd" d="M7.99617 11.6987L7.56835 10.5072L7.14313 11.6987H7.99617ZM12.0965 12.9881L12.0939 10.648L11.1882 12.9881H10.6403L9.73148 10.6456V12.9881H8.46157L8.22157 12.3216H6.92087L6.67826 12.9881H6L7.11861 10H8.04626L9.10852 12.8294V10H10.128L10.9456 12.0268L11.6963 10H12.7367V12.9881H12.0965ZM13.7311 12.3771V11.7822H15.1023V11.1724H13.7311V10.6289H15.2969L15.9803 11.5L15.2666 12.3771H13.7311ZM17.963 13H17.1511L16.3821 12.0101L15.5828 13H13.1087V10.0107H15.6209L16.3894 10.9905L17.184 10.0107H18L16.7859 11.5054L17.963 13Z" fill="#39365B"/>
<rect x="2.75" y="4.75" width="18.5" height="14.5" rx="0.75" stroke="#39365B" stroke-width="1.5"/>
</svg>
