<svg width="24" height="24" viewBox="0 0 24 24" fill="none" xmlns="http://www.w3.org/2000/svg">
<mask id="mask0_3182_24799" style="mask-type:alpha" maskUnits="userSpaceOnUse" x="0" y="0" width="24" height="24">
<rect width="24" height="24" fill="#D9D9D9"/>
</mask>
<g mask="url(#mask0_3182_24799)">
<path d="M22 6V18C22 18.537 21.8164 19.0046 21.4492 19.4028C21.082 19.8009 20.6406 20 20.125 20H3.875C3.37153 20 2.93316 19.8009 2.5599 19.4028C2.18663 19.0046 2 18.537 2 18V6C2 5.46296 2.18663 4.99537 2.5599 4.59722C2.93316 4.19907 3.37153 4 3.875 4H20.125C20.6406 4 21.082 4.19907 21.4492 4.59722C21.8164 4.99537 22 5.46296 22 6ZM3.875 9.33333H20.125V6H3.875V9.33333ZM3.875 12V18H20.125V12H3.875Z" fill="#39365B"/>
</g>
</svg>
