<svg width="20" height="16" viewBox="0 0 20 16" fill="none" xmlns="http://www.w3.org/2000/svg">
<rect x="3" y="3" width="14" height="10" fill="#39365B"/>
<path d="M15.0437 6.20075C15.0437 6.05882 15.0152 5.91973 14.961 5.78347C14.9069 5.65289 14.8299 5.53935 14.7273 5.43999C14.6161 5.32929 14.4906 5.25264 14.3567 5.21006C14.2227 5.16748 14.0402 5.14478 13.8064 5.14478H10.6904V7.26241H13.8064C14.0374 7.26241 14.2227 7.2397 14.3567 7.19712C14.4906 7.1517 14.6161 7.07506 14.7273 6.96719C14.8299 6.86784 14.9069 6.75145 14.961 6.62371C15.0152 6.48746 15.0437 6.34836 15.0437 6.20643" fill="white"/>
<path d="M15.0437 8.78956C15.0437 8.64763 15.0152 8.50853 14.961 8.37228C14.9069 8.2417 14.8299 8.12815 14.7273 8.0288C14.6161 7.91809 14.4906 7.84145 14.3567 7.79887C14.2227 7.75629 14.0402 7.73358 13.8064 7.73358H10.6904V9.85121H13.8064C14.0374 9.85121 14.2227 9.8285 14.3567 9.78592C14.4906 9.74051 14.6161 9.66386 14.7273 9.55599C14.8299 9.45664 14.9069 9.34026 14.961 9.21252C15.0152 9.07626 15.0437 8.93717 15.0437 8.79524" fill="white"/>
<path d="M10.257 7.25956C10.1572 5.88282 9.17083 5 7.63421 5C6.01491 5 5 5.98501 5 7.49233C5 8.99966 6.05482 9.98751 7.63421 9.98751C9.2136 9.98751 10.1572 9.10185 10.257 7.72794H7.6V7.25673H10.257V7.25956Z" fill="white"/>
<path d="M15.9929 12.4642C15.9444 12.5156 15.8817 12.5384 15.8133 12.5384C15.7449 12.5384 15.6822 12.5127 15.6337 12.4642C15.5852 12.4158 15.5596 12.3531 15.5596 12.2846C15.5596 12.2162 15.5852 12.1535 15.6337 12.105C15.6822 12.0566 15.742 12.0309 15.8133 12.0309C15.8846 12.0309 15.9444 12.0566 15.9929 12.105C16.0414 12.1535 16.067 12.2134 16.067 12.2846C16.067 12.3559 16.0414 12.4158 15.9929 12.4642ZM15.6594 12.1307C15.6166 12.1735 15.5966 12.2248 15.5966 12.2846C15.5966 12.3445 15.6166 12.3987 15.6594 12.4414C15.7021 12.4842 15.7534 12.507 15.8133 12.507C15.8732 12.507 15.9245 12.4842 15.9672 12.4414C16.01 12.3987 16.03 12.3474 16.03 12.2846C16.03 12.2219 16.01 12.1735 15.9672 12.1307C15.9245 12.0879 15.8732 12.0651 15.8133 12.0651C15.7534 12.0651 15.7021 12.0879 15.6594 12.1307ZM15.8076 12.1449C15.8418 12.1449 15.8675 12.1478 15.8846 12.1564C15.9131 12.1678 15.9273 12.1934 15.9273 12.2276C15.9273 12.2533 15.9188 12.2704 15.8988 12.2818C15.8903 12.2875 15.876 12.2932 15.8589 12.296C15.8817 12.2989 15.896 12.3074 15.9074 12.3246C15.9188 12.3388 15.9216 12.3531 15.9216 12.3673V12.3873C15.9216 12.3873 15.9216 12.4015 15.9216 12.4072C15.9216 12.4158 15.9216 12.4186 15.9216 12.4215L15.876 12.4243C15.876 12.4243 15.876 12.4243 15.876 12.4215V12.4129V12.3901C15.876 12.3588 15.8675 12.336 15.8504 12.3274C15.839 12.3217 15.8219 12.3189 15.7962 12.3189H15.7563V12.43H15.7078V12.1507H15.8047L15.8076 12.1449ZM15.8618 12.1877C15.8618 12.1877 15.8304 12.1763 15.8019 12.1763H15.7591V12.2789H15.8047C15.8247 12.2789 15.8418 12.2789 15.8504 12.2732C15.8703 12.2647 15.8789 12.2504 15.8789 12.2305C15.8789 12.2105 15.8732 12.1963 15.8589 12.1906L15.8618 12.1877Z" fill="white"/>
<rect x="0.75" y="0.75" width="18.5" height="14.5" rx="0.75" stroke="#39365B" stroke-width="1.5"/>
</svg>
