<svg width="20" height="16" viewBox="0 0 20 16" fill="none" xmlns="http://www.w3.org/2000/svg">
<g clip-path="url(#clip0_3182_24771)">
<path d="M15.4443 6.64886V11.0666H16.9688V6.64886H15.4443Z" fill="#39365B"/>
<path d="M10.7152 6.6178L10.684 6.64891H10.5285L10.4974 6.68002H10.404L10.3729 6.71113H10.3107L10.2796 6.74224H10.2485L10.2174 6.77335H10.1863L10.1552 6.80446H10.124L10.0929 6.83558H10.0618L10.0307 6.86669H9.9996L9.93737 6.92891H9.90626L9.78182 7.05335H9.75071L9.7196 7.08446V7.11558L9.68849 7.14669H9.65737V7.1778L9.56404 7.27113V7.30224L9.50182 7.36446V7.39558L9.4396 7.4578V7.48891L9.40849 7.52002V7.55113L9.37737 7.58224V7.64446L9.34626 7.67558V7.7378L9.31515 7.76891V7.83113L9.28404 7.86224V7.98669L9.25293 8.0178V9.6978L9.28404 9.72891V9.85335L9.31515 9.88446V9.94669L9.34626 9.9778V10.04L9.37737 10.0711V10.1334L9.40849 10.1645V10.1956L9.4396 10.2267V10.2578L9.50182 10.32V10.3511L9.56404 10.4134V10.4445L9.7196 10.6V10.6311H9.75071L9.90626 10.7867H9.93737L9.9996 10.8489H10.0307L10.0929 10.9111H10.1552L10.1863 10.9422H10.2174L10.2485 10.9734H10.2796L10.3107 11.0045H10.3729L10.404 11.0356H10.4974L10.5285 11.0667H10.684L10.7152 11.0978H14.6663V9.88446H11.3374L11.3063 9.85335H11.1818L11.1507 9.82224H11.0885L11.0574 9.79113H10.9952L10.9329 9.72891H10.9018L10.8085 9.63558V9.60447L10.7774 9.57335V9.54224L10.7463 9.51113V9.48002L10.7152 9.44891V9.29335L10.684 9.26224V8.42224L10.7152 8.39113V8.26669L10.7463 8.23558V8.17335L10.8085 8.11113V8.08002L10.9018 7.98669H10.9329L10.9952 7.92446H11.0263L11.0574 7.89335H11.1196L11.1507 7.86224H11.3063L11.3374 7.83113H14.6663V6.6178H10.7152Z" fill="#39365B"/>
<path d="M15.4754 5.03107L15.4443 5.06218V6.05773H16.9688V5.03107H15.4754Z" fill="#39365B"/>
<path d="M7.16889 5V6.68L7.13778 6.71111H4.74222L4.71111 6.74222H4.46222L4.43111 6.77333H4.27556L4.24444 6.80444H4.12L4.08889 6.83556H4.02667L3.99556 6.86667H3.93333L3.90222 6.89778H3.84L3.80889 6.92889H3.74667L3.71556 6.96H3.68444L3.62222 7.02222H3.59111L3.56 7.05333H3.52889L3.43556 7.14667H3.40444L3.31111 7.24V7.27111L3.21778 7.36444V7.39556L3.18667 7.42667V7.45778L3.15556 7.48889V7.52L3.12444 7.55111V7.61333L3.09333 7.64444V7.70667L3.06222 7.73778V7.83111L3.03111 7.86222V8.04889L3 8.08V9.66667L3.03111 9.69778V9.88444L3.06222 9.91556V10.0089L3.09333 10.04V10.1333L3.12444 10.1644V10.1956L3.15556 10.2267V10.2578L3.18667 10.2889V10.32L3.21778 10.3511V10.3822L3.28 10.4444V10.4756L3.46667 10.6622H3.49778L3.56 10.7244H3.59111L3.62222 10.7556H3.65333L3.68444 10.7867H3.71556L3.74667 10.8178H3.77778L3.80889 10.8489H3.87111L3.90222 10.88H3.96444L3.99556 10.9111H4.05778L4.08889 10.9422H4.21333L4.24444 10.9733H4.36889L4.4 11.0044H4.61778L4.64889 11.0356H7.10667L7.13778 11.0044H7.29333L7.32444 10.9733H7.44889L7.48 10.9422H7.54222L7.57333 10.9111H7.63556L7.66667 10.88H7.72889L7.76 10.8489H7.79111L7.82222 10.8178H7.88444L7.94667 10.7556H7.97778L8.00889 10.7244H8.04L8.07111 10.6933H8.10222L8.22667 10.5689H8.25778L8.38222 10.4444V10.4133L8.44444 10.3511V10.32L8.50667 10.2578V10.2267L8.53778 10.1956V10.1644L8.56889 10.1333V10.0711L8.6 10.04V9.94667L8.63111 9.91556V5H7.16889Z" fill="#39365B"/>
</g>
<rect x="4.34082" y="7.82977" width="2.97872" height="2.08511" rx="0.744681" fill="white"/>
<rect x="0.75" y="0.75" width="18.5" height="14.5" rx="0.75" stroke="#39365B" stroke-width="1.5"/>
<defs>
<clipPath id="clip0_3182_24771">
<rect width="14" height="6.12889" fill="white" transform="translate(3 5)"/>
</clipPath>
</defs>
</svg>
