<svg width="24" height="24" viewBox="0 0 24 24" fill="none" xmlns="http://www.w3.org/2000/svg">
<path d="M13.5988 12.2017C13.5988 11.8984 13.4822 11.595 13.2605 11.3734C13.0271 11.14 12.7355 11.035 12.4321 11.035C11.7787 11.035 11.2537 11.5484 11.2537 12.2134C11.2537 12.8785 11.7787 13.3918 12.4321 13.3918C13.0855 13.3918 13.6105 12.8668 13.6105 12.2134L13.5988 12.2017ZM11.032 12.7151C10.857 12.8901 10.6937 12.9601 10.5187 12.9601C10.0986 12.9601 9.78362 12.6451 9.78362 12.1901C9.78362 11.9684 9.86529 11.7817 10.0053 11.6184C10.1336 11.5017 10.297 11.42 10.4837 11.42C10.682 11.42 10.8453 11.49 11.0204 11.665V11.14C10.8566 11.0476 10.6717 10.9994 10.4837 11C10.192 11.0233 9.92363 11.14 9.71361 11.315C9.65528 11.3734 9.59694 11.4317 9.55027 11.5017C9.39859 11.7 9.30526 11.9334 9.30526 12.2017C9.30526 12.8551 9.83029 13.3568 10.4837 13.3568H10.507C10.682 13.3568 10.8453 13.3101 11.0437 13.2168V12.6918C11.0437 12.6918 11.0437 12.7034 11.032 12.7151ZM15.0806 11.3384L14.5672 12.5984L13.9839 11.105H13.5055L14.4272 13.3801H14.6722L15.6406 11.105H15.1623L15.0689 11.3384H15.0806ZM15.839 12.0967V13.3218H17.0757V12.9601H16.2823V12.3534H17.0524V11.9684H16.2823V11.49H17.0757V11.105H15.839V12.0967ZM5.63004 11.105H5V13.3218H5.63004C5.96839 13.3218 6.21341 13.2285 6.42342 13.0768C6.66843 12.8785 6.83178 12.5518 6.83178 12.2134C6.83178 11.56 6.35341 11.105 5.63004 11.105ZM6.15507 12.7734C6.01506 12.8901 5.84005 12.9485 5.5717 12.9485H5.43169V11.4784H5.54837C5.81672 11.4784 6.00339 11.525 6.13173 11.6534C6.29508 11.7934 6.37675 11.9917 6.37675 12.1901C6.38555 12.2942 6.37011 12.399 6.33165 12.4961C6.29319 12.5933 6.23275 12.6802 6.15507 12.7501V12.7734ZM7.46181 11.105H7.03012V13.3218H7.46181V11.105ZM8.54688 11.9684C8.27853 11.8751 8.20852 11.8051 8.20852 11.7C8.20852 11.56 8.34853 11.455 8.52354 11.455C8.66355 11.455 8.76856 11.5017 8.88523 11.63L9.10691 11.3384C8.92899 11.1753 8.69482 11.0875 8.45354 11.0933C8.06852 11.0933 7.7535 11.3617 7.7535 11.7234C7.7535 12.0384 7.89351 12.1784 8.2902 12.3301C8.46521 12.4001 8.53521 12.4234 8.58188 12.4701C8.67522 12.5168 8.72189 12.6101 8.72189 12.6918C8.72189 12.8668 8.58188 13.0068 8.38353 13.0068C8.18519 13.0068 7.99851 12.8901 7.90517 12.7151L7.63682 12.9835C7.83517 13.2751 8.09185 13.4151 8.40687 13.4151C8.8619 13.4151 9.17691 13.1235 9.17691 12.6918C9.17691 12.3068 9.03691 12.1551 8.54688 11.9684ZM18.3008 12.3884C18.6391 12.3184 18.8258 12.0967 18.8258 11.7584C18.8258 11.35 18.5341 11.105 18.0324 11.105H17.3791V13.3218H17.8108V12.4468H17.8808L18.4875 13.3218H19.0125L18.3125 12.4001L18.3008 12.3884ZM17.9391 12.1201H17.7991V11.4434H17.9391C18.2075 11.4434 18.3708 11.56 18.3708 11.7817C18.3708 12.0034 18.2075 12.1201 17.9391 12.1201Z" fill="#39365B"/>
<rect x="2.75" y="4.75" width="18.5" height="14.5" rx="0.75" stroke="#39365B" stroke-width="1.5"/>
</svg>
