<svg width="24" height="24" viewBox="0 0 24 24" fill="none" xmlns="http://www.w3.org/2000/svg">
<path d="M7.07489 7C5.95068 7 5 7.89374 5 9.02129V17.15H16.3245C17.4915 17.15 18.3993 16.2141 18.3993 15.1073V7H7.07489ZM9.40838 15.0007C9.40838 15.8308 8.73842 16.4693 7.91704 16.4693H5.73495V13.3406C5.73495 13.3406 6.40492 13.5114 7.24774 13.5114C8.6741 13.5114 9.10623 12.9795 9.10623 12.3195V10.6178H7.83128V12.3624C7.83128 12.7878 7.54989 13.086 7.03134 13.086C6.59921 13.086 6.18852 12.9587 5.75639 12.7664V9.14858C5.75639 8.31916 6.42636 7.68136 7.24774 7.68136H9.40838V15.0007ZM13.5354 15.0007C13.5354 15.8308 12.8654 16.4693 12.0447 16.4693H9.88406V13.1067C10.2519 13.4049 10.9218 13.6179 11.9811 13.5965C12.3743 13.576 12.7648 13.519 13.1475 13.4263V12.7878C12.8453 12.9366 12.4775 13.086 12.0239 13.1067C11.224 13.1711 10.749 12.7878 10.749 12.0857C10.749 11.4044 11.2461 11.0004 12.0239 11.064C12.4775 11.0855 12.8668 11.2134 13.1475 11.4044V10.7666C13.1475 10.7666 12.5425 10.6172 11.9804 10.5964C10.9433 10.5749 10.2733 10.7451 9.88406 11.0855V9.17069C9.88406 8.33993 10.554 7.70213 11.3754 7.70213H13.5367L13.5354 15.0007ZM17.6423 15.0007C17.6423 15.8308 16.9723 16.4693 16.1509 16.4693H13.9467V13.49H16.2588C16.7995 13.49 17.2101 13.1925 17.2101 12.7456C17.2101 12.3195 16.8423 12.0643 16.3673 12.0643V12.0428C16.7995 11.9792 17.0373 11.7239 17.0373 11.3836C17.0373 10.9575 16.6695 10.7237 16.1945 10.7022H13.9682V9.17069C13.9682 8.33993 14.6381 7.70213 15.4595 7.70213H17.6423V15.0007ZM15.5674 12.1708H15.6545C15.8052 12.1922 15.956 12.4053 15.956 12.5962C15.956 12.8093 15.8052 12.958 15.6545 12.958H14.7246V12.1708H15.5674ZM14.7246 11.8305V11.1069H15.5674C15.6534 11.1197 15.7318 11.1635 15.7876 11.2302C15.8434 11.2969 15.8728 11.3818 15.8702 11.4687C15.8702 11.6389 15.7188 11.809 15.5674 11.8305H14.7246Z" fill="#39365B"/>
<rect x="2.75" y="4.75" width="18.5" height="14.5" rx="0.75" stroke="#39365B" stroke-width="1.5"/>
</svg>
