<svg width="20" height="16" viewBox="0 0 20 16" fill="none" xmlns="http://www.w3.org/2000/svg">
<path d="M3.23686 11.9069L3.23687 11.9069L4.86142 4.93503L4.86144 4.93493C4.95301 4.54112 5.35532 4.21875 5.73666 4.21875H9.22451C9.40596 4.21875 9.53651 4.29091 9.61388 4.39224C9.6919 4.49444 9.73146 4.64713 9.6876 4.83587L8.06385 11.8071C8.06383 11.8072 8.06381 11.8073 8.06378 11.8074C7.97127 12.1998 7.56846 12.5225 7.18751 12.5225H3.69993C3.51896 12.5225 3.38828 12.4503 3.31074 12.3489C3.23259 12.2467 3.19311 12.0944 3.23686 11.9069Z" fill="#39365B" stroke="#39365B" stroke-width="0.4375"/>
<path d="M12.8855 4.83547L12.8854 4.83577L11.2618 11.8074L11.4748 11.8572L11.2617 11.8076L11.2617 11.8075C11.2397 11.9017 11.2225 11.9953 11.2073 12.0775C11.202 12.1064 11.197 12.1339 11.192 12.1595C11.1718 12.2646 11.1537 12.3405 11.1298 12.3981C11.1074 12.4522 11.0855 12.4762 11.0652 12.4897C11.0443 12.5037 11.0013 12.5225 10.9086 12.5225H6.89764C6.71564 12.5225 6.58519 12.4502 6.50813 12.3492C6.43042 12.2472 6.39127 12.0951 6.43545 11.9073L6.43557 11.9068L8.05893 4.93563C8.05895 4.93553 8.05898 4.93543 8.059 4.93532C8.15231 4.54064 8.55419 4.21875 8.93464 4.21875H12.9456C12.9891 4.21875 13.015 4.22286 13.0293 4.22637C13.0295 4.23191 13.0295 4.23907 13.0291 4.24814C13.0263 4.30174 13.0097 4.37613 12.9804 4.48304C12.9731 4.50939 12.9651 4.53769 12.9567 4.56745C12.9336 4.64924 12.9074 4.74205 12.8855 4.83547ZM13.0273 4.21008C13.0274 4.21005 13.0275 4.21048 13.0278 4.21147L13.0273 4.21008Z" fill="#39365B" stroke="#39365B" stroke-width="0.4375"/>
<path d="M16.7369 4.83549L16.7368 4.83577L15.1133 11.8071C15.1132 11.8072 15.1132 11.8073 15.1132 11.8073C15.0207 12.1997 14.6177 12.5225 14.2363 12.5225H10.75C10.568 12.5225 10.4373 12.4502 10.36 12.349C10.2821 12.247 10.2428 12.0949 10.2869 11.9072L10.287 11.9068L11.9108 4.93501L11.9108 4.93493C12.0024 4.54108 12.4044 4.21875 12.7861 4.21875H16.2739C16.4558 4.21875 16.5865 4.291 16.6638 4.39222C16.7417 4.49428 16.7811 4.64681 16.7369 4.83549Z" fill="#39365B" stroke="#39365B" stroke-width="0.4375"/>
<path d="M6.64778 6.23429C6.28914 6.23795 6.18321 6.23429 6.14936 6.22631C6.13634 6.2881 5.8943 7.4046 5.89364 7.40553C5.84152 7.63139 5.80362 7.79245 5.67478 7.89641C5.60172 7.95684 5.51635 7.98604 5.41737 7.98604C5.25834 7.98604 5.16564 7.90702 5.15011 7.75723L5.1471 7.70582C5.1471 7.70582 5.19555 7.40323 5.19555 7.40154C5.19555 7.40154 5.44958 6.38408 5.49508 6.2496C5.49748 6.24195 5.49814 6.23795 5.49874 6.23429C5.00431 6.23866 4.91665 6.23429 4.91063 6.22631C4.9073 6.23724 4.89505 6.30035 4.89505 6.30035L4.63566 7.44715L4.61341 7.54438L4.57031 7.8625C4.57031 7.95684 4.58885 8.03389 4.62571 8.09902C4.74389 8.30552 5.08098 8.33648 5.27168 8.33648C5.51734 8.33648 5.74784 8.28425 5.90359 8.18893C6.17391 8.02924 6.24468 7.77954 6.30773 7.55762L6.33699 7.44381C6.33699 7.44381 6.59867 6.38709 6.64313 6.2496C6.64477 6.24195 6.64548 6.23795 6.64778 6.23429ZM7.53809 7.08676C7.47504 7.08676 7.35981 7.10207 7.25623 7.15282C7.21866 7.17213 7.18312 7.19438 7.1456 7.21659L7.17945 7.09441L7.16091 7.07385C6.94134 7.11831 6.89218 7.12427 6.68934 7.15282L6.67239 7.16414C6.64882 7.35938 6.62788 7.50621 6.54059 7.89006C6.50715 8.03205 6.47303 8.17387 6.43822 8.31553L6.44752 8.33341C6.65544 8.32248 6.71849 8.32248 6.89918 8.32543L6.91378 8.30957C6.93675 8.19199 6.9397 8.16443 6.99056 7.92627C7.01446 7.81339 7.06428 7.56533 7.08884 7.47701C7.13395 7.45606 7.17852 7.4355 7.22102 7.4355C7.3223 7.4355 7.30994 7.52382 7.30605 7.55904C7.30168 7.6181 7.26482 7.81109 7.22698 7.9768L7.20171 8.08371C7.18416 8.16273 7.16485 8.23946 7.14724 8.31777L7.1549 8.33341C7.35976 8.32248 7.42227 8.32248 7.59721 8.32543L7.61777 8.30957C7.64944 8.12593 7.65868 8.07677 7.71479 7.8094L7.74301 7.68657C7.79786 7.44611 7.82542 7.32421 7.78391 7.2249C7.74005 7.11361 7.63473 7.08676 7.53809 7.08676ZM8.5328 7.33848C8.42387 7.35943 8.35441 7.37332 8.2854 7.38234C8.21698 7.39328 8.15021 7.40329 8.04499 7.41789L8.03663 7.42544L8.02897 7.43145C8.01803 7.50988 8.01038 7.57763 7.99583 7.65731C7.98352 7.73967 7.96455 7.8333 7.9337 7.96777C7.9098 8.0707 7.8975 8.10657 7.88388 8.14277C7.87059 8.17903 7.85599 8.21425 7.82914 8.31548L7.83543 8.32483L7.84068 8.33341C7.93906 8.32877 8.00343 8.32543 8.06955 8.32483C8.13561 8.32248 8.20408 8.32483 8.30995 8.32538L8.31925 8.31788L8.3292 8.30952C8.34452 8.21819 8.34676 8.19363 8.35611 8.14912C8.36541 8.10132 8.38137 8.0352 8.42059 7.85851C8.43912 7.77555 8.45974 7.6928 8.47899 7.60815C8.49895 7.52382 8.51984 7.44081 8.53975 7.35779L8.5368 7.34778L8.5328 7.33848ZM8.5351 6.99909C8.43612 6.94069 8.26248 6.95923 8.14556 7.03989C8.02902 7.11897 8.01573 7.23119 8.11439 7.29036C8.21163 7.34713 8.38597 7.33023 8.50185 7.24885C8.61817 7.16808 8.63272 7.0569 8.5351 6.99909ZM9.13355 8.35173C9.33376 8.35173 9.539 8.2965 9.69349 8.13282C9.81233 8.00004 9.86685 7.80245 9.88572 7.72108C9.94713 7.45141 9.89928 7.32552 9.83923 7.24885C9.74791 7.13193 9.58652 7.09441 9.41913 7.09441C9.3185 7.09441 9.07875 7.10437 8.89145 7.27707C8.75691 7.40159 8.69479 7.57063 8.65733 7.73262C8.61948 7.89777 8.57595 8.19495 8.84928 8.30558C8.93361 8.34178 9.05518 8.35173 9.13355 8.35173ZM9.11791 7.74498C9.16406 7.54077 9.21859 7.36938 9.35766 7.36938C9.46665 7.36938 9.47458 7.49691 9.42613 7.70177C9.41743 7.74727 9.37767 7.91637 9.32386 7.98834C9.28623 8.04149 9.24183 8.0737 9.19261 8.0737C9.17801 8.0737 9.09105 8.0737 9.08969 7.94459C9.08903 7.88082 9.10205 7.81569 9.11791 7.74498ZM10.3862 8.32548L10.4018 8.30957C10.424 8.19199 10.4277 8.16438 10.4768 7.92632C10.5014 7.81339 10.5522 7.56538 10.5761 7.47701C10.6213 7.45601 10.6651 7.43545 10.709 7.43545C10.8096 7.43545 10.7973 7.52377 10.7933 7.55898C10.7896 7.61816 10.7527 7.81104 10.7142 7.97674L10.6903 8.08366C10.6721 8.16273 10.6522 8.23941 10.6346 8.31783L10.6422 8.33347C10.8478 8.32253 10.9079 8.32253 11.0839 8.32548L11.1051 8.30957C11.136 8.12582 11.1444 8.07671 11.2022 7.8094L11.2297 7.68652C11.2848 7.44606 11.3127 7.32427 11.2718 7.22495C11.2267 7.11366 11.1208 7.08681 11.0255 7.08681C10.9623 7.08681 10.8465 7.10202 10.7435 7.15288C10.7067 7.17213 10.6698 7.19433 10.6336 7.21664L10.6651 7.09447L10.6482 7.0738C10.4287 7.11831 10.3786 7.12427 10.1759 7.15288L10.1604 7.16414C10.1358 7.35943 10.1158 7.50616 10.0286 7.89012C9.9951 8.03208 9.96099 8.17388 9.92624 8.31553L9.93554 8.33347C10.1437 8.32253 10.2059 8.32253 10.3862 8.32548ZM11.8965 8.33341C11.9094 8.2703 11.9862 7.89646 11.9869 7.89646C11.9869 7.89646 12.0522 7.62209 12.0563 7.61214C12.0563 7.61214 12.0768 7.58359 12.0974 7.57227H12.1276C12.4132 7.57227 12.7357 7.57227 12.9884 7.38634C13.1604 7.25881 13.278 7.07052 13.3304 6.84165C13.344 6.78554 13.3541 6.71882 13.3541 6.6521C13.3541 6.56444 13.3365 6.4777 13.2856 6.40995C13.1567 6.22964 12.9001 6.22631 12.6038 6.22494L12.4578 6.22631C12.0785 6.23101 11.9264 6.22964 11.8639 6.22198C11.8587 6.2496 11.8487 6.29877 11.8487 6.29877C11.8487 6.29877 11.7129 6.92838 11.7129 6.92937L11.3725 8.33112C11.7036 8.32713 11.8394 8.32713 11.8965 8.33341ZM12.1482 7.21495C12.1482 7.21495 12.2926 6.58659 12.292 6.58899L12.2967 6.55673L12.2987 6.53223L12.3564 6.53813C12.3564 6.53813 12.6543 6.56373 12.6613 6.56438C12.7789 6.60988 12.8273 6.72713 12.7935 6.88015C12.7626 7.02004 12.6719 7.13762 12.5553 7.19438C12.4594 7.24251 12.3418 7.2465 12.2207 7.2465H12.1423L12.1482 7.21495ZM13.0475 7.75663C13.0094 7.91932 12.9655 8.21655 13.2375 8.32248C13.3242 8.35934 13.4019 8.37033 13.4808 8.36634C13.5643 8.36185 13.6415 8.32002 13.7131 8.2598L13.6937 8.33413L13.7061 8.34998C13.9017 8.34178 13.9624 8.34178 14.1743 8.34342L14.1936 8.32877C14.2245 8.14682 14.2537 7.97018 14.3341 7.62209C14.3733 7.45541 14.4124 7.29031 14.4526 7.12427L14.4463 7.10601C14.2275 7.14653 14.169 7.15523 13.9585 7.18503L13.9425 7.19805C13.9404 7.215 13.9381 7.23124 13.9361 7.24748C13.9034 7.1946 13.8559 7.14943 13.7827 7.12132C13.6891 7.08446 13.4693 7.13193 13.2803 7.30398C13.1475 7.42686 13.0837 7.59519 13.0475 7.75663ZM13.5071 7.76658C13.554 7.56598 13.6077 7.39634 13.7472 7.39634C13.8354 7.39634 13.8818 7.47766 13.8723 7.61641C13.8642 7.65392 13.8559 7.69136 13.8472 7.72873C13.8332 7.78834 13.8181 7.84741 13.8034 7.90658C13.7884 7.94705 13.771 7.98522 13.7519 8.01065C13.716 8.06151 13.6307 8.09301 13.5815 8.09301C13.5676 8.09301 13.4815 8.09301 13.4786 7.96613C13.4779 7.90302 13.4909 7.838 13.5071 7.76658ZM15.9071 7.10431L15.8902 7.08501C15.6737 7.12887 15.6345 7.13587 15.4356 7.16272L15.4209 7.17732C15.4203 7.17973 15.4197 7.18334 15.4186 7.18667L15.418 7.18339C15.2699 7.52508 15.2742 7.45136 15.1537 7.72031C15.1529 7.70806 15.1529 7.70046 15.1523 7.68745L15.1221 7.10431L15.1032 7.08501C14.8763 7.12887 14.871 7.13587 14.6615 7.16272L14.6452 7.17732C14.6429 7.18432 14.6429 7.19198 14.6415 7.20029L14.6429 7.2033C14.6691 7.33706 14.6628 7.3072 14.689 7.51841C14.7013 7.62204 14.7176 7.72627 14.7298 7.82865C14.7505 7.99993 14.7621 8.08426 14.7873 8.34572C14.6459 8.57913 14.6124 8.6675 14.4761 8.87236L14.4771 8.87438L14.3812 9.02609C14.3703 9.04205 14.3603 9.05299 14.3464 9.0577C14.331 9.06524 14.3111 9.06661 14.2835 9.06661H14.2304L14.1514 9.32933L14.4224 9.33398C14.5814 9.33332 14.6814 9.25895 14.7352 9.15898L14.9056 8.867H14.9029L14.9208 8.84644C15.0354 8.59974 15.9071 7.10431 15.9071 7.10431ZM13.0475 10.5544H12.9326L13.358 9.14733H13.4991L13.544 9.00241L13.5483 9.16357C13.543 9.26321 13.6214 9.35153 13.8273 9.33693H14.0654L14.1474 9.06601H14.0578C14.0063 9.06601 13.9823 9.05299 13.9853 9.0251L13.981 8.86109H13.54V8.86197C13.3975 8.86492 12.9717 8.87564 12.8855 8.89861C12.7812 8.92541 12.6713 9.00454 12.6713 9.00454L12.7145 8.8594H12.302L12.216 9.14733L11.7849 10.5759H11.7012L11.6192 10.8449H12.4408L12.4133 10.9346H12.8181L12.845 10.8449H12.9585L13.0475 10.5544ZM12.7104 9.43323C12.6444 9.4515 12.5215 9.50695 12.5215 9.50695L12.6308 9.14733H12.9585L12.8795 9.40934C12.8795 9.40934 12.7782 9.41535 12.7105 9.43323M12.7168 9.94697C12.7168 9.94697 12.6139 9.95993 12.5461 9.97519C12.4794 9.99542 12.3542 10.0592 12.3542 10.0592L12.4671 9.68496H12.7965L12.7168 9.94697ZM12.5331 10.5577H12.2044L12.2997 10.2419H12.6274L12.5331 10.5577ZM13.3249 9.68496H13.7987L13.7306 9.90552H13.2505L13.1784 10.1466H13.5986L13.2804 10.5945C13.2581 10.6274 13.2382 10.6391 13.216 10.6483C13.1937 10.6597 13.1645 10.6729 13.1307 10.6729H13.0141L12.934 10.937H13.2388C13.3973 10.937 13.4909 10.8649 13.56 10.7703L13.7782 10.4717L13.825 10.7749C13.835 10.8316 13.8758 10.8649 13.9034 10.8778C13.9339 10.8931 13.9655 10.9194 14.01 10.9233C14.0578 10.9253 14.0923 10.927 14.1153 10.927H14.2651L14.355 10.6314H14.2959C14.262 10.6314 14.2036 10.6258 14.1937 10.6151C14.1837 10.6022 14.1837 10.5823 14.1784 10.552L14.1308 10.2482H13.9362L14.0216 10.1466H14.5008L14.5745 9.90552H14.1308L14.1999 9.68496H14.6423L14.7243 9.413H13.4056L13.3249 9.68496ZM9.32255 10.6191L9.43313 10.2512H9.88774L9.97076 9.97754H9.51576L9.58521 9.75108H10.0298L10.1122 9.48606H8.99973L8.91906 9.75108H9.17183L9.1044 9.97748H8.85098L8.76698 10.2558H9.01963L8.8722 10.7427C8.85234 10.8071 8.88155 10.8316 8.90009 10.8616C8.91906 10.8908 8.93826 10.9101 8.98146 10.921C9.02603 10.931 9.05655 10.9369 9.098 10.9369H9.61048L9.7018 10.6337L9.47463 10.665C9.43077 10.665 9.30926 10.6597 9.32255 10.6191ZM9.37466 8.85776L9.25949 9.06595C9.23488 9.1114 9.21263 9.13967 9.19266 9.15263C9.17506 9.16357 9.14016 9.16822 9.08969 9.16822H9.02959L8.94925 9.43455H9.14886C9.24489 9.43455 9.31855 9.39938 9.35377 9.38177C9.39162 9.36154 9.40157 9.37308 9.43077 9.34486L9.4982 9.28645H10.1215L10.2043 9.00919H9.74796L9.82764 8.8577L9.37466 8.85776ZM10.2949 10.6245C10.2843 10.6092 10.2919 10.5822 10.3082 10.5261L10.4785 9.96223H11.0846C11.173 9.96097 11.2367 9.95993 11.2782 9.95698C11.3227 9.95227 11.3712 9.93636 11.424 9.90781C11.4785 9.8779 11.5064 9.84634 11.5299 9.81014C11.5561 9.77405 11.5984 9.69491 11.6346 9.57302L11.8487 8.8594L11.2198 8.86306C11.2198 8.86306 11.0261 8.89161 10.9409 8.92322C10.8548 8.95838 10.7319 9.05666 10.7319 9.05666L10.7887 8.86104H10.4002L9.85624 10.665C9.83694 10.735 9.82398 10.7858 9.82102 10.8164C9.82004 10.8493 9.86253 10.8819 9.89009 10.9064C9.92263 10.931 9.97076 10.927 10.0169 10.931C10.0655 10.9346 10.1345 10.9369 10.2298 10.9369H10.5284L10.62 10.6274L10.3527 10.6527C10.3241 10.6527 10.3035 10.6374 10.2949 10.6245ZM10.5885 9.58138H11.225L11.1845 9.7082C11.1789 9.71116 11.1653 9.70191 11.1005 9.70957H10.5492L10.5885 9.58138ZM10.716 9.15591H11.358L11.3117 9.30871C11.3117 9.30871 11.0092 9.30576 10.9608 9.31467C10.7475 9.35159 10.623 9.4655 10.623 9.4655L10.716 9.15591ZM11.1989 10.133C11.1936 10.1519 11.1852 10.1635 11.1736 10.1722C11.1606 10.1805 11.1397 10.1834 11.1085 10.1834H11.0179L11.0232 10.029H10.6459L10.6306 10.7842C10.63 10.8386 10.6353 10.8702 10.6751 10.8955C10.7151 10.927 10.8379 10.931 11.0033 10.931H11.2397L11.325 10.6483L11.1192 10.6596L11.0507 10.6636C11.0414 10.6596 11.0325 10.6559 11.0225 10.646C11.0139 10.6375 10.9992 10.6427 11.0016 10.5882L11.0033 10.3946L11.2191 10.3857C11.3356 10.3857 11.3855 10.3478 11.428 10.3117C11.4685 10.2771 11.4818 10.2373 11.4971 10.1834L11.5333 10.012H11.2367L11.1989 10.133Z" fill="#FEFEFE"/>
<rect x="0.75" y="0.75" width="18.5" height="14.5" rx="0.75" stroke="#39365B" stroke-width="1.5"/>
</svg>
