<svg width="24" height="24" viewBox="0 0 24 24" fill="none" xmlns="http://www.w3.org/2000/svg">
<path d="M18.055 10.0699H17.18C16.9117 10.0699 16.7133 10.1515 16.585 10.4199L14.905 14.2465H16.095C16.095 14.2465 16.305 13.7332 16.34 13.6165H17.7983C17.845 13.7565 17.9383 14.2349 17.9383 14.2349H19L18.055 10.0815V10.0699ZM16.6667 12.7532C16.7717 12.5082 17.1217 11.5865 17.1217 11.5865C17.1217 11.6099 17.2267 11.3415 17.2617 11.2015L17.3433 11.5749L17.6117 12.7882H16.6667V12.7649V12.7532ZM14.9867 12.8699C14.9867 13.7332 14.205 14.3049 13.0033 14.3049C12.49 14.3049 12 14.1999 11.7317 14.0832L11.895 13.1382L12.035 13.1965C12.4083 13.3599 12.6533 13.4182 13.0967 13.4182C13.4233 13.4182 13.7733 13.2899 13.7733 13.0099C13.7733 12.8232 13.6333 12.7065 13.1783 12.4965C12.7467 12.2865 12.175 11.9599 12.175 11.3765C12.175 10.5599 12.9683 9.99988 14.1 9.99988C14.5317 9.99988 14.8933 10.0815 15.1267 10.1865L14.9633 11.0849L14.8817 11.0032C14.6717 10.9215 14.415 10.8399 14.0183 10.8399C13.5867 10.8632 13.3883 11.0499 13.3883 11.2132C13.3883 11.3999 13.6333 11.5399 14.0183 11.7265C14.6717 12.0299 14.975 12.3799 14.975 12.8699H14.9867ZM5 10.1049L5.02333 10.0232H6.785C7.03 10.0232 7.21667 10.1049 7.275 10.3732L7.66 12.2165C7.275 11.2365 6.365 10.4315 5 10.1049Z" fill="#39365B"/>
<path d="M10.1334 10.0697L8.3484 14.223H7.13506L6.1084 10.7464C6.8434 11.213 7.46173 11.9597 7.6834 12.4614L7.81173 12.893L8.92007 10.0464H10.1334V10.0697ZM10.6117 10.0464H11.7317L11.0201 14.223H9.90006L10.6117 10.0464Z" fill="#39365B"/>
<rect x="2.75" y="4.75" width="18.5" height="14.5" rx="0.75" stroke="#39365B" stroke-width="1.5"/>
</svg>
